<svg width="20" height="24" viewBox="0 0 20 24" fill="none" xmlns="http://www.w3.org/2000/svg">
<path fill-rule="evenodd" clip-rule="evenodd" d="M19.1042 24H0.37523C0.26498 24 0.160355 23.9513 0.0887304 23.8673C0.0171053 23.7833 -0.0128947 23.6715 0.00510533 23.5627L1.29511 15.9225V7.76962C1.29511 7.56262 1.46273 7.39462 1.67011 7.39462H4.93973V5.06625C4.93973 2.27288 7.02923 0 9.59798 0C12.1667 0 14.2562 2.27288 14.2562 5.06625V7.39425H17.5259C17.7332 7.39425 17.9009 7.56225 17.9009 7.76925V15.8092L19.4717 23.55C19.4942 23.6602 19.4654 23.7746 19.3945 23.862C19.3232 23.9494 19.2164 24 19.1042 24ZM5.68973 7.39462H13.5062V5.06625C13.5062 2.6865 11.7531 0.75 9.59798 0.75C7.44286 0.75 5.68973 2.6865 5.68973 5.06625V7.39462ZM18.6452 23.25H0.818856L2.03986 16.017C2.04323 15.996 2.04511 15.9754 2.04511 15.9544V8.14462H4.93973V10.3901H5.68973V8.14462H13.5059V10.3901H14.2559V8.14462H17.1505V15.8471C17.1505 15.8722 17.1531 15.8974 17.158 15.9218L18.6452 23.25Z" fill="#080808"/>
</svg>
