<svg width="14" height="24" viewBox="0 0 14 24" fill="none" xmlns="http://www.w3.org/2000/svg">
<path d="M8.41406 24H4.57068C3.92871 24 3.40649 23.4778 3.40649 22.8358V14.1669H1.16418C0.522217 14.1669 0 13.6445 0 13.0027V9.28802C0 8.64606 0.522217 8.12384 1.16418 8.12384H3.40649V6.26367C3.40649 4.41925 3.98566 2.85004 5.08118 1.72595C6.18164 0.596741 7.71954 0 9.52863 0L12.4598 0.00476072C13.1006 0.00585938 13.6219 0.528076 13.6219 1.16895V4.61792C13.6219 5.25989 13.0999 5.7821 12.4581 5.7821L10.4846 5.78284C9.88275 5.78284 9.72949 5.9035 9.69672 5.94049C9.6427 6.00183 9.57843 6.17523 9.57843 6.65405V8.12366H12.3098C12.5154 8.12366 12.7147 8.17438 12.8859 8.26996C13.2552 8.47632 13.4848 8.86652 13.4848 9.28821L13.4833 13.0029C13.4833 13.6445 12.9611 14.1667 12.3192 14.1667H9.57843V22.8358C9.57843 23.4778 9.05603 24 8.41406 24ZM4.81348 22.593H8.17126V13.537C8.17126 13.1083 8.52008 12.7597 8.94855 12.7597H12.0764L12.0776 9.53082H8.94836C8.5199 9.53082 8.17126 9.18219 8.17126 8.75354V6.65405C8.17126 6.10437 8.22711 5.47925 8.64203 5.0094C9.14337 4.44141 9.93347 4.37585 10.4843 4.37585L12.215 4.37512V1.41138L9.52753 1.40698C6.62018 1.40698 4.81348 3.26807 4.81348 6.26367V8.75354C4.81348 9.18201 4.46484 9.53082 4.03638 9.53082H1.40698V12.7597H4.03638C4.46484 12.7597 4.81348 13.1083 4.81348 13.537V22.593Z" fill="#080808"/>
</svg>
