<svg width="16" height="15" viewBox="0 0 16 15" fill="none" xmlns="http://www.w3.org/2000/svg">
<path d="M12 14.6667H11.3333C10.9333 14.6667 10.6667 14.4 10.6667 14V11.3333C10.6667 10.9333 10.9333 10.6667 11.3333 10.6667H12C12.4 10.6667 12.6667 10.9333 12.6667 11.3333V12H15.3333C15.7333 12 16 12.2667 16 12.6667C16 13.0667 15.7333 13.3333 15.3333 13.3333H12.6667V14C12.6667 14.4 12.4 14.6667 12 14.6667ZM8.66667 13.3333H0.666667C0.266667 13.3333 0 13.0667 0 12.6667C0 12.2667 0.266667 12 0.666667 12H8.66667C9.06667 12 9.33333 12.2667 9.33333 12.6667C9.33333 13.0667 9.06667 13.3333 8.66667 13.3333ZM4.66667 9.33333H4C3.6 9.33333 3.33333 9.06667 3.33333 8.66667V8H0.666667C0.266667 8 0 7.73333 0 7.33333C0 6.93333 0.266667 6.66667 0.666667 6.66667H3.33333V6C3.33333 5.6 3.6 5.33333 4 5.33333H4.66667C5.06667 5.33333 5.33333 5.6 5.33333 6V8.66667C5.33333 9.06667 5.06667 9.33333 4.66667 9.33333ZM15.3333 8H7.33333C6.93333 8 6.66667 7.73333 6.66667 7.33333C6.66667 6.93333 6.93333 6.66667 7.33333 6.66667H15.3333C15.7333 6.66667 16 6.93333 16 7.33333C16 7.73333 15.7333 8 15.3333 8ZM12 4H11.3333C10.9333 4 10.6667 3.73333 10.6667 3.33333V0.666667C10.6667 0.266667 10.9333 0 11.3333 0H12C12.4 0 12.6667 0.266667 12.6667 0.666667V1.33333H15.3333C15.7333 1.33333 16 1.6 16 2C16 2.4 15.7333 2.66667 15.3333 2.66667H12.6667V3.33333C12.6667 3.73333 12.4 4 12 4ZM8.66667 2.66667H0.666667C0.266667 2.66667 0 2.4 0 2C0 1.6 0.266667 1.33333 0.666667 1.33333H8.66667C9.06667 1.33333 9.33333 1.6 9.33333 2C9.33333 2.4 9.06667 2.66667 8.66667 2.66667Z" fill="white"/>
</svg>
