<svg width="1280" height="218" viewBox="0 0 1280 218" fill="none" xmlns="http://www.w3.org/2000/svg">
<path d="M1197.08 113.393V227.543H1154.03V113.393L1071.1 0.151855H1121.13L1175.55 76.5553L1231.19 0.151855H1280L1197.08 113.393Z" fill="#E7E5E8" fill-opacity="0.3"/>
<path d="M987.332 40.0211V227.543H944.28V40.0211H867.27V0.151855H1064.34V40.0211H987.332Z" fill="#E7E5E8" fill-opacity="0.3"/>
<path d="M803.964 227.541L757.273 142.952H716.646V227.541H671.168V1.51465H770.613C798.355 1.51465 819.427 8.94276 833.828 23.3442C846.259 35.6233 852.171 51.9955 852.171 72.6123V73.2187C852.171 106.873 834.738 128.399 804.116 140.678L860.66 227.541H803.964ZM806.238 75.1894C806.238 52.905 790.927 42.1419 766.52 42.1419H716.494V108.54H767.278C791.988 108.54 806.238 95.6546 806.238 75.7958V75.1894Z" fill="#E7E5E8" fill-opacity="0.3"/>
<path d="M515.541 40.0211V92.4727L616.806 92.7759V132.342L515.541 132.039V187.674H639.09V227.543H472.337V0.30345L639.393 0.151855V40.0211H515.541Z" fill="#E7E5E8" fill-opacity="0.3"/>
<path d="M375.225 227.541H271.686L271.232 1.51465H372.193C397.661 1.51465 416.307 8.0332 428.89 20.4639C438.592 30.3175 443.746 42.5966 443.746 56.8465V57.4529C443.746 79.7372 432.679 95.9578 412.214 108.237C440.108 113.24 456.025 132.492 456.025 159.173V159.93C456.025 199.042 424.493 227.541 375.225 227.541ZM398.419 65.1842C398.419 48.9636 385.837 40.7775 365.068 40.7775H315.497V90.652H361.733C383.563 90.652 398.419 83.6786 398.419 65.7906V65.1842ZM411.153 161.446C411.153 145.377 399.026 135.827 373.558 135.827H315.8V187.521H375.074C396.752 187.521 411.153 179.638 411.153 162.053V161.446Z" fill="#E7E5E8" fill-opacity="0.3"/>
<path d="M190.493 227.543V0H233.697V227.543H190.493Z" fill="#E7E5E8" fill-opacity="0.3"/>
<path d="M0 227.543V0.151855H43.2043V187.674H166.754V227.543H0Z" fill="#E7E5E8" fill-opacity="0.3"/>
</svg>
