<svg width="24" height="24" viewBox="0 0 24 24" fill="none" xmlns="http://www.w3.org/2000/svg">
<path d="M17.5034 0H6.49658C2.91431 0 0 2.91431 0 6.49658V17.5036C0 21.0857 2.91431 24 6.49658 24H17.5036C21.0857 24 24 21.0857 24 17.5036V6.49658C24 2.91431 21.0857 0 17.5034 0ZM22.593 17.5036C22.593 20.3099 20.3099 22.593 17.5034 22.593H6.49658C3.69012 22.593 1.40698 20.3099 1.40698 17.5036V6.49658C1.40698 3.69012 3.69012 1.40698 6.49658 1.40698H17.5036C20.3099 1.40698 22.593 3.69012 22.593 6.49658V17.5036Z" fill="#080808"/>
<path d="M11.9998 5.43787C8.38129 5.43787 5.4375 8.38165 5.4375 12.0002C5.4375 15.6187 8.38129 18.5625 11.9998 18.5625C15.6183 18.5625 18.5621 15.6187 18.5621 12.0002C18.5621 8.38165 15.6183 5.43787 11.9998 5.43787ZM11.9998 17.1555C9.15729 17.1555 6.84448 14.8429 6.84448 12.0002C6.84448 9.15765 9.15729 6.84485 11.9998 6.84485C14.8425 6.84485 17.1552 9.15765 17.1552 12.0002C17.1552 14.8429 14.8425 17.1555 11.9998 17.1555Z" fill="#080808"/>
<path d="M18.7164 3.1073C17.6471 3.1073 16.7773 3.97723 16.7773 5.04639C16.7773 6.11572 17.6471 6.98566 18.7164 6.98566C19.7858 6.98566 20.6557 6.11572 20.6557 5.04639C20.6557 3.97705 19.7858 3.1073 18.7164 3.1073ZM18.7164 5.57849C18.4231 5.57849 18.1843 5.33972 18.1843 5.04639C18.1843 4.75287 18.4231 4.51428 18.7164 4.51428C19.0099 4.51428 19.2487 4.75287 19.2487 5.04639C19.2487 5.33972 19.0099 5.57849 18.7164 5.57849Z" fill="#080808"/>
</svg>
