<svg width="33" height="33" viewBox="0 0 33 33" fill="none" xmlns="http://www.w3.org/2000/svg">
<path d="M23.6915 0H8.79335C3.94462 0 0 3.94462 0 8.79335V23.6917C0 28.5402 3.94462 32.4848 8.79335 32.4848H23.6917C28.5402 32.4848 32.4848 28.5402 32.4848 23.6917V8.79335C32.4848 3.94462 28.5402 0 23.6915 0ZM30.5804 23.6917C30.5804 27.4901 27.4901 30.5804 23.6915 30.5804H8.79335C4.99471 30.5804 1.9044 27.4901 1.9044 23.6917V8.79335C1.9044 4.99471 4.99471 1.9044 8.79335 1.9044H23.6917C27.4901 1.9044 30.5804 4.99471 30.5804 8.79335V23.6917Z" fill="#E7E5E8"/>
<path d="M16.2427 7.35986C11.3449 7.35986 7.36035 11.3444 7.36035 16.2422C7.36035 21.14 11.3449 25.1245 16.2427 25.1245C21.1405 25.1245 25.125 21.14 25.125 16.2422C25.125 11.3444 21.1405 7.35986 16.2427 7.35986ZM16.2427 23.2201C12.3952 23.2201 9.26475 20.0899 9.26475 16.2422C9.26475 12.3947 12.3952 9.26426 16.2427 9.26426C20.0904 9.26426 23.2206 12.3947 23.2206 16.2422C23.2206 20.0899 20.0904 23.2201 16.2427 23.2201Z" fill="#E7E5E8"/>
<path d="M25.3374 4.20544C23.8901 4.20544 22.7128 5.38293 22.7128 6.83007C22.7128 8.27745 23.8901 9.45494 25.3374 9.45494C26.7848 9.45494 27.9623 8.27745 27.9623 6.83007C27.9623 5.38268 26.7848 4.20544 25.3374 4.20544ZM25.3374 7.55029C24.9404 7.55029 24.6172 7.22711 24.6172 6.83007C24.6172 6.43278 24.9404 6.10984 25.3374 6.10984C25.7347 6.10984 26.0579 6.43278 26.0579 6.83007C26.0579 7.22711 25.7347 7.55029 25.3374 7.55029Z" fill="#E7E5E8"/>
</svg>
