<svg width="181" height="32" viewBox="0 0 181 32" fill="none" xmlns="http://www.w3.org/2000/svg">
<path d="M168.349 15.9469V32.0002H162.294V15.9469L150.632 0.0214844H157.668L165.321 10.7663L173.145 0.0214844H180.01L168.349 15.9469Z" fill="#080808"/>
<path d="M138.851 5.62841V32.0002H132.797V5.62841H121.967V0.0214844H149.682V5.62841H138.851Z" fill="#080808"/>
<path d="M113.064 31.9997L106.498 20.1036H100.784V31.9997H94.3882V0.212891H108.374C112.275 0.212891 115.238 1.25753 117.264 3.28284C119.012 5.00969 119.843 7.31216 119.843 10.2116V10.2968C119.843 15.0297 117.392 18.057 113.085 19.7838L121.037 31.9997H113.064ZM113.384 10.574C113.384 7.44007 111.23 5.92642 107.798 5.92642H100.763V15.2642H107.905C111.38 15.2642 113.384 13.4521 113.384 10.6593V10.574Z" fill="#080808"/>
<path d="M72.502 5.62841V13.0048L86.7431 13.0475V18.6118L72.502 18.5691V26.3932H89.8771V32.0002H66.426V0.0428035L89.9197 0.0214844V5.62841H72.502Z" fill="#080808"/>
<path d="M52.769 31.9997H38.2081L38.1441 0.212891H52.3426C55.9243 0.212891 58.5465 1.12961 60.316 2.87778C61.6804 4.26352 62.4053 5.99037 62.4053 7.99437V8.07965C62.4053 11.2136 60.849 13.4947 57.9709 15.2216C61.8936 15.9251 64.1321 18.6326 64.1321 22.3848V22.4914C64.1321 27.9917 59.6977 31.9997 52.769 31.9997ZM56.0308 9.16692C56.0308 6.88578 54.2614 5.73454 51.3406 5.73454H44.3693V12.7485H50.8716C53.9416 12.7485 56.0308 11.7679 56.0308 9.2522V9.16692ZM57.8217 22.7046C57.8217 20.4447 56.1161 19.1016 52.5345 19.1016H44.4119V26.3715H52.7477C55.7963 26.3715 57.8217 25.2629 57.8217 22.7898V22.7046Z" fill="#080808"/>
<path d="M26.7896 32V0H32.8656V32H26.7896Z" fill="#080808"/>
<path d="M0 32.0002V0.0214844H6.07595V26.3932H23.451V32.0002H0Z" fill="#080808"/>
</svg>
