<svg width="16" height="15" viewBox="0 0 16 15" fill="none" xmlns="http://www.w3.org/2000/svg">
<path d="M12.2981 14.4555L7.60047 11.9864L2.90286 14.4555L3.80008 9.22641L0 5.52213L5.25056 4.758L7.60047 0L9.94849 4.758L15.2 5.52213L11.4002 9.22641L12.2981 14.4555ZM1.35848 5.96378L4.47948 9.00606L3.74222 13.2996L7.60016 11.2722L11.4578 13.2996L10.7205 9.00606L13.8415 5.96378L9.52833 5.33623L7.59984 1.42867L5.67008 5.33623L1.35848 5.96378Z" fill="white"/>
<path d="M1.35848 5.96378L4.47948 9.00606L3.74222 13.2996L7.60016 11.2722L11.4578 13.2996L10.7205 9.00606L13.8415 5.96378L9.52833 5.33623L7.59984 1.42867L5.67008 5.33623L1.35848 5.96378Z" fill="white"/>
</svg>
