<svg width="24" height="23" viewBox="0 0 24 23" fill="none" xmlns="http://www.w3.org/2000/svg">
<path d="M19.418 22.8244L12.0007 18.9259L4.58346 22.8244L6.00012 14.568L0 8.71915L8.29036 7.51264L12.0007 0L15.7081 7.51264L24 8.71915L18.0004 14.568L19.418 22.8244ZM2.14497 9.4165L7.07286 14.2201L5.90878 20.9994L12.0002 17.7982L18.0912 20.9994L16.9271 14.2201L21.855 9.4165L15.0447 8.42563L11.9998 2.25579L8.95277 8.42563L2.14497 9.4165Z" fill="#080808"/>
<path d="M2.14497 9.4165L7.07286 14.2201L5.90878 20.9994L12.0002 17.7982L18.0912 20.9994L16.9271 14.2201L21.855 9.4165L15.0447 8.42563L11.9998 2.25579L8.95277 8.42563L2.14497 9.4165Z" fill="#080808"/>
</svg>
