<svg width="33" height="33" viewBox="0 0 33 33" fill="none" xmlns="http://www.w3.org/2000/svg">
<path d="M31.8488 0.593326C31.3262 0.041569 30.5834 -0.142302 29.9101 0.113362L1.34706 10.9629C0.568627 11.2585 0.0407474 12.0592 0.00223507 13.0026C-0.0362138 13.946 0.424094 14.8003 1.17493 15.1789L8.2388 18.7402C8.27325 18.9244 10.3011 29.7619 10.37 30.1303C10.4586 30.6034 10.667 31.0249 11.1085 31.1545C11.5551 31.2856 11.8706 31.0044 12.2039 30.7169C12.3893 30.557 17.4459 26.194 17.4459 26.194L23.5741 31.9725C23.9311 32.3092 24.3673 32.4848 24.8122 32.4848C25.024 32.4848 25.2378 32.445 25.4458 32.3637C26.0908 32.1117 26.5689 31.5051 26.7248 30.7412L32.4329 2.77667C32.5951 1.9816 32.3714 1.14508 31.8488 0.593326ZM12.6605 20.7809C12.657 20.7904 12.6536 20.8011 12.6503 20.814L11.4687 25.5711L10.15 18.5237L19.2177 12.7185L12.878 20.3568C12.7781 20.4771 12.7046 20.6226 12.6605 20.7809ZM13.0355 27.2529L13.5722 25.0922L14.0856 23.0254L15.925 24.7599L13.0355 27.2529ZM30.5756 2.27324L24.8676 30.2378C24.8648 30.2516 24.861 30.2708 24.8331 30.2817C24.8054 30.2925 24.7919 30.2802 24.7824 30.2711L18.0766 23.948C18.0765 23.9479 18.0763 23.9476 18.0761 23.9475L14.9692 21.0178L24.9509 8.99148C25.2769 8.59867 25.3048 7.99032 25.0165 7.56007C24.7282 7.12975 24.2103 7.00685 23.7981 7.27093L9.01806 16.7334L1.93972 13.1647C1.91814 13.1539 1.90628 13.1478 1.90799 13.1058C1.90971 13.0639 1.92202 13.0591 1.94435 13.0507L30.5074 2.20122C30.5213 2.19603 30.5369 2.19004 30.5598 2.21416C30.5828 2.23844 30.579 2.25686 30.5756 2.27324Z" fill="#E7E5E8"/>
</svg>
