<svg width="24" height="21" viewBox="0 0 24 21" fill="none" xmlns="http://www.w3.org/2000/svg">
<path d="M23.5301 0.380418C23.144 0.0266525 22.5952 -0.0912384 22.0978 0.0726836L0.995215 7.02899C0.420105 7.21855 0.0301044 7.73192 0.00165129 8.33675C-0.026755 8.94163 0.313323 9.48936 0.868043 9.73213L6.08688 12.0155C6.11233 12.1336 7.6105 19.0822 7.66146 19.3184C7.72685 19.6218 7.88083 19.892 8.20703 19.9751C8.53699 20.0592 8.7701 19.8788 9.01628 19.6945C9.1533 19.592 12.8891 16.7946 12.8891 16.7946L17.4167 20.4996C17.6804 20.7155 18.0027 20.8281 18.3314 20.8281C18.4879 20.828 18.6458 20.8025 18.7995 20.7504C19.276 20.5888 19.6293 20.1999 19.7444 19.7101L23.9616 1.78029C24.0815 1.27053 23.9162 0.734184 23.5301 0.380418ZM9.35364 13.3239C9.35107 13.33 9.34853 13.3369 9.34614 13.3452L8.47314 16.3952L7.49889 11.8767L14.1981 8.1546L9.51433 13.052C9.44055 13.1292 9.38627 13.2224 9.35364 13.3239ZM9.63072 17.4735L10.0272 16.0882L10.4065 14.763L11.7655 15.8751L9.63072 17.4735ZM22.5895 1.45751L18.3724 19.3873C18.3702 19.3962 18.3674 19.4085 18.3468 19.4155C18.3264 19.4224 18.3164 19.4145 18.3094 19.4087L13.3551 15.3546C13.355 15.3545 13.3549 15.3543 13.3548 15.3542L11.0593 13.4759L18.4339 5.765C18.6747 5.51314 18.6953 5.12309 18.4824 4.84723C18.2693 4.57133 17.8867 4.49253 17.5822 4.66184L6.66259 10.7288L1.43307 8.44072C1.41714 8.43378 1.40837 8.42989 1.40964 8.40294C1.4109 8.37608 1.42 8.37303 1.4365 8.3676L22.5391 1.41134C22.5493 1.40801 22.5608 1.40417 22.5778 1.41964C22.5948 1.4352 22.592 1.44701 22.5895 1.45751Z" fill="#080808"/>
</svg>
