<svg width="30" height="33" viewBox="0 0 30 33" fill="none" xmlns="http://www.w3.org/2000/svg">
<path d="M10.5275 32.4848C8.16281 32.4848 5.93265 31.7305 4.0781 30.3029C3.73168 30.0364 3.39858 29.7452 3.08769 29.4381C0.922878 27.2987 -0.166507 24.4493 0.020662 21.4146C0.162149 19.121 1.08594 16.9099 2.62326 15.1886C4.65927 12.9089 7.46616 11.6533 10.5281 11.6533C11.0541 11.6533 11.5851 11.6926 12.1079 11.77L12.9201 11.8906V19.0975L11.6695 18.6845C11.3053 18.5639 10.9266 18.503 10.5433 18.503C9.57514 18.503 8.66848 18.8825 7.99024 19.5709C7.31516 20.2561 6.95161 21.1621 6.96557 22.1233C6.98397 23.3624 7.63684 24.4855 8.71163 25.1288C9.20651 25.4245 9.76992 25.5977 10.3422 25.6294C10.794 25.6541 11.24 25.5951 11.6689 25.4537C13.1351 24.9696 14.1205 23.6093 14.1205 22.0694L14.1268 14.5953V0H21.0146L21.0229 0.942822C21.0267 1.36982 21.0705 1.79682 21.1529 2.21049C21.4765 3.83727 22.3889 5.28704 23.7219 6.29204C24.9052 7.18473 26.3175 7.65615 27.8047 7.65615C27.8396 7.65615 27.8396 7.65615 28.1575 7.67835L29.0426 7.74053V13.5777V14.5294L28.7253 14.5287H28.0928C28.0877 14.5287 28.0826 14.5287 28.0769 14.5287H27.773C27.7717 14.5287 27.7698 14.5287 27.7679 14.5287C25.9337 14.5287 24.2149 14.1791 22.5113 13.4603C22.0038 13.2458 21.5095 13.0009 21.0324 12.7275L21.054 22.1056C21.0425 24.8795 19.9462 27.4814 17.9673 29.4375C16.3614 31.0243 14.3349 32.0382 12.1067 32.3681C11.587 32.4455 11.056 32.4848 10.5275 32.4848ZM10.5275 13.5567C8.01561 13.5567 5.71249 14.5865 4.04257 16.4562C2.78885 17.8603 2.0351 19.6628 1.91963 21.5314C1.76736 24.009 2.65688 26.3362 4.42515 28.0835C4.68084 28.3361 4.9543 28.5752 5.23854 28.7941C6.75746 29.9635 8.58664 30.5814 10.5275 30.5814C10.9627 30.5814 11.3999 30.5491 11.8281 30.4856C13.6535 30.2153 15.3139 29.3848 16.6298 28.0842C18.2464 26.4866 19.1417 24.363 19.1512 22.1043L19.1214 9.00947L20.6587 10.1953C21.4524 10.8076 22.3254 11.3164 23.2524 11.7079C24.5194 12.2427 25.7966 12.5397 27.1385 12.6101V9.53608C25.48 9.41172 23.9135 8.8223 22.5754 7.81286C20.8687 6.52615 19.7006 4.66843 19.2857 2.58293C19.2413 2.35896 19.2051 2.13245 19.1785 1.90404H16.0296V14.596L16.0233 22.07C16.0233 24.4322 14.5132 26.5183 12.2653 27.2606C11.6099 27.477 10.9278 27.5671 10.2375 27.5296C9.35815 27.4814 8.49274 27.2156 7.73391 26.7619C6.08873 25.7779 5.08944 24.054 5.06152 22.1512C5.03995 20.6767 5.59765 19.286 6.6331 18.2347C7.67173 17.1802 9.05995 16.5996 10.5421 16.5996C10.7007 16.5996 10.858 16.6066 11.0154 16.6199V13.57C10.853 13.5612 10.6899 13.5567 10.5275 13.5567Z" fill="#E7E5E8"/>
</svg>
