<svg width="22" height="24" viewBox="0 0 22 24" fill="none" xmlns="http://www.w3.org/2000/svg">
<path d="M7.77776 24C6.03073 24 4.38308 23.4427 3.01292 22.388C2.75698 22.1911 2.51089 21.9759 2.2812 21.7491C0.681828 20.1684 -0.123016 18.0633 0.0152652 15.8212C0.119796 14.1267 0.802296 12.4931 1.93808 11.2214C3.4423 9.53719 5.51605 8.60953 7.77823 8.60953C8.16683 8.60953 8.55917 8.63859 8.94542 8.69578L9.54542 8.78484V14.1094L8.62151 13.8042C8.35245 13.7152 8.07261 13.6702 7.78948 13.6702C7.07417 13.6702 6.40433 13.9505 5.90323 14.4591C5.40448 14.9653 5.13589 15.6347 5.1462 16.3448C5.1598 17.2603 5.64214 18.09 6.4362 18.5653C6.80183 18.7838 7.21808 18.9117 7.64089 18.9352C7.97464 18.9534 8.30417 18.9098 8.62105 18.8053C9.70433 18.4477 10.4323 17.4427 10.4323 16.305L10.437 10.7831V0H15.5257L15.5318 0.696562C15.5346 1.01203 15.567 1.3275 15.6279 1.63313C15.867 2.835 16.541 3.90609 17.5259 4.64859C18.4001 5.30813 19.4435 5.65641 20.5423 5.65641C20.5681 5.65641 20.5681 5.65641 20.8029 5.67281L21.4568 5.71875V10.0312V10.7344L21.2225 10.7339H20.7551C20.7514 10.7339 20.7476 10.7339 20.7434 10.7339H20.5189C20.5179 10.7339 20.5165 10.7339 20.5151 10.7339C19.16 10.7339 17.8901 10.4756 16.6315 9.94453C16.2565 9.78609 15.8914 9.60516 15.5389 9.40313L15.5548 16.3317C15.5464 18.3811 14.7364 20.3034 13.2743 21.7486C12.0879 22.9209 10.5907 23.67 8.94448 23.9137C8.56058 23.9709 8.16823 24 7.77776 24ZM7.77776 10.0158C5.92198 10.0158 4.22042 10.7766 2.98667 12.158C2.06042 13.1953 1.50355 14.527 1.41823 15.9075C1.30573 17.738 1.96292 19.4573 3.26933 20.7483C3.45823 20.9348 3.66026 21.1116 3.87027 21.2733C4.99245 22.1372 6.34386 22.5938 7.77776 22.5938C8.09933 22.5938 8.4223 22.5698 8.7387 22.523C10.0873 22.3233 11.314 21.7097 12.2862 20.7488C13.4806 19.5684 14.142 17.9995 14.149 16.3308L14.127 6.65625L15.2628 7.53234C15.8492 7.98469 16.4942 8.36063 17.179 8.64984C18.1151 9.045 19.0587 9.26437 20.0501 9.31641V7.04531C18.8248 6.95344 17.6674 6.51797 16.6789 5.77219C15.4179 4.82156 14.555 3.44906 14.2484 1.90828C14.2156 1.74281 14.1889 1.57547 14.1692 1.40672H11.8428V10.7836L11.8381 16.3055C11.8381 18.0506 10.7225 19.5919 9.06167 20.1403C8.57745 20.3002 8.07355 20.3667 7.56355 20.3391C6.91386 20.3034 6.27448 20.107 5.71386 19.7719C4.49839 19.0448 3.76011 17.7712 3.73948 16.3655C3.72355 15.2761 4.13558 14.2486 4.90058 13.4719C5.66792 12.6928 6.69355 12.2639 7.78855 12.2639C7.90573 12.2639 8.02198 12.2691 8.13823 12.2789V10.0256C8.01823 10.0191 7.89776 10.0158 7.77776 10.0158Z" fill="#080808"/>
</svg>
